<svg width="760" height="220" viewBox="0 0 760 220" fill="none" xmlns="http://www.w3.org/2000/svg" role="img" aria-labelledby="title desc">
  <title id="title">DailyFlow logo</title>
  <desc id="desc">A black and white editorial wordmark with a flow-node icon and subtle grid.</desc>
  <rect width="760" height="220" fill="#FFFFFF"/>
  <defs>
    <pattern id="grid" width="28" height="28" patternUnits="userSpaceOnUse">
      <path d="M 28 0 L 0 0 0 28" fill="none" stroke="#E9E9E9" stroke-width="1"/>
    </pattern>
  </defs>
  <rect width="760" height="220" fill="url(#grid)" opacity="0.9"/>
  <rect x="52" y="48" width="124" height="124" rx="30" fill="#171717"/>
  <circle cx="91" cy="88" r="10" fill="#FFFFFF"/>
  <circle cx="137" cy="88" r="10" fill="#FFFFFF"/>
  <circle cx="114" cy="132" r="10" fill="#FFFFFF"/>
  <path d="M99 91C111 112 125 112 134 91" stroke="#FFFFFF" stroke-width="8" stroke-linecap="round"/>
  <path d="M114 122V100" stroke="#FFFFFF" stroke-width="8" stroke-linecap="round"/>
  <text x="210" y="118" fill="#171717" font-family="Georgia, 'Times New Roman', serif" font-size="58" font-weight="700" letter-spacing="-2.2">DailyFlow</text>
  <rect x="213" y="137" width="244" height="34" rx="17" fill="#FFFFFF" stroke="#171717" stroke-width="2"/>
  <text x="232" y="160" fill="#171717" font-family="Avenir Next, Gill Sans, sans-serif" font-size="15" font-weight="600" letter-spacing="1.3">ROLL YOUR DAY FORWARD</text>
  <path d="M662 74h34v34h-34z" stroke="#171717" stroke-width="2" transform="rotate(9 679 91)"/>
  <path d="M613 139h50" stroke="#171717" stroke-width="3" stroke-linecap="round"/>
  <path d="M638 114v50" stroke="#171717" stroke-width="3" stroke-linecap="round"/>
</svg>
